<svg xmlns="http://www.w3.org/2000/svg" width="1600" height="340" viewBox="0 0 1600 340"><defs>
<radialGradient id="bg" cx="50%" cy="40%" r="72%"><stop offset="0" stop-color="#0d1b1b"></stop><stop offset="60%" stop-color="#071011"></stop><stop offset="100%" stop-color="#04080a"></stop></radialGradient>
<radialGradient id="sa" cx="50%" cy="50%" r="50%"><stop offset="0" stop-color="#54d8c7" stop-opacity="0.18"></stop><stop offset="100%" stop-color="#54d8c7" stop-opacity="0"></stop></radialGradient>
<radialGradient id="sl" cx="50%" cy="50%" r="50%"><stop offset="0" stop-color="#ff86b3" stop-opacity="0.16"></stop><stop offset="100%" stop-color="#ff86b3" stop-opacity="0"></stop></radialGradient>
<pattern id="scan" width="4" height="4" patternUnits="userSpaceOnUse"><rect width="4" height="1" fill="#000" opacity="0.22"></rect></pattern>
</defs><rect width="1600" height="340" fill="url(#bg)"></rect><circle cx="300" cy="110" r="200" fill="url(#sa)"></circle><circle cx="1300" cy="240" r="200" fill="url(#sl)"></circle><rect x="88" y="82" width="15" height="15" rx="1" fill="#ff86b3" opacity="0.26"></rect><rect x="142" y="64" width="15" height="15" rx="1" fill="#bfeef0" opacity="0.17"></rect><rect x="106" y="100" width="15" height="15" rx="1" fill="#3aa6e0" opacity="0.21"></rect><rect x="160" y="46" width="15" height="15" rx="1" fill="#54d8c7" opacity="0.26"></rect><rect x="142" y="100" width="15" height="15" rx="1" fill="#54d8c7" opacity="0.19"></rect><rect x="124" y="64" width="15" height="15" rx="1" fill="#3aa6e0" opacity="0.15"></rect><rect x="70" y="100" width="15" height="15" rx="1" fill="#bfeef0" opacity="0.28"></rect><rect x="70" y="64" width="15" height="15" rx="1" fill="#ff86b3" opacity="0.26"></rect><rect x="142" y="82" width="15" height="15" rx="1" fill="#54d8c7" opacity="0.23"></rect><rect x="88" y="82" width="15" height="15" rx="1" fill="#54d8c7" opacity="0.12"></rect><rect x="70" y="100" width="15" height="15" rx="1" fill="#bfeef0" opacity="0.28"></rect><rect x="1410" y="82" width="15" height="15" rx="1" fill="#54d8c7" opacity="0.12"></rect><rect x="1482" y="82" width="15" height="15" rx="1" fill="#3aa6e0" opacity="0.32"></rect><rect x="1464" y="100" width="15" height="15" rx="1" fill="#bfeef0" opacity="0.26"></rect><rect x="1428" y="46" width="15" height="15" rx="1" fill="#bfeef0" opacity="0.18"></rect><rect x="1428" y="64" width="15" height="15" rx="1" fill="#ff86b3" opacity="0.13"></rect><rect x="1464" y="64" width="15" height="15" rx="1" fill="#bfeef0" opacity="0.31"></rect><rect x="1482" y="64" width="15" height="15" rx="1" fill="#3aa6e0" opacity="0.11"></rect><rect x="1464" y="82" width="15" height="15" rx="1" fill="#bfeef0" opacity="0.30"></rect><rect x="1446" y="46" width="15" height="15" rx="1" fill="#54d8c7" opacity="0.31"></rect><rect x="1500" y="46" width="15" height="15" rx="1" fill="#54d8c7" opacity="0.31"></rect><rect x="1482" y="82" width="15" height="15" rx="1" fill="#ff86b3" opacity="0.18"></rect><rect x="1448" y="290" width="15" height="15" rx="1" fill="#bfeef0" opacity="0.17"></rect><rect x="1466" y="290" width="15" height="15" rx="1" fill="#54d8c7" opacity="0.19"></rect><rect x="1502" y="254" width="15" height="15" rx="1" fill="#54d8c7" opacity="0.25"></rect><rect x="1484" y="272" width="15" height="15" rx="1" fill="#3aa6e0" opacity="0.26"></rect><rect x="1484" y="272" width="15" height="15" rx="1" fill="#54d8c7" opacity="0.32"></rect><rect x="1448" y="254" width="15" height="15" rx="1" fill="#ff86b3" opacity="0.21"></rect><rect x="1430" y="290" width="15" height="15" rx="1" fill="#3aa6e0" opacity="0.15"></rect><rect x="1484" y="254" width="15" height="15" rx="1" fill="#bfeef0" opacity="0.11"></rect><rect x="1430" y="290" width="15" height="15" rx="1" fill="#54d8c7" opacity="0.16"></rect><line x1="158" y1="252" x2="700" y2="252" stroke="#54d8c7" stroke-width="5" stroke-linecap="round" opacity="0.4"></line><rect width="1600" height="340" fill="url(#scan)" opacity="0.35"></rect><g transform="translate(150,222) skewX(-5)" font-family="&#39;Arial Black&#39;,&#39;Arial Narrow&#39;,Arial,sans-serif" font-weight="900" font-size="146" letter-spacing="-5"><text x="6" y="7" fill="#ff86b3" opacity="0.30">thanuka.lab</text><text x="0" y="0" fill="#54d8c7" opacity="0.92">thanuka<tspan fill="#ff86b3" opacity="0.9">.lab</tspan></text></g><text x="158" y="292" font-family="&#39;Courier New&#39;,monospace" font-weight="700" font-size="20" letter-spacing="3" fill="#5f8d92" opacity="0.85">// est. 2003 — layout v17 — best viewed with a pulse</text><rect x="16" y="16" width="1568" height="308" rx="14" fill="none" stroke="rgba(159,224,221,0.12)" stroke-width="1.5"></rect><circle cx="44" cy="44" r="3.5" fill="rgba(159,224,221,0.28)"></circle><circle cx="1556" cy="44" r="3.5" fill="rgba(159,224,221,0.28)"></circle><circle cx="44" cy="296" r="3.5" fill="rgba(159,224,221,0.28)"></circle><circle cx="1556" cy="296" r="3.5" fill="rgba(159,224,221,0.28)"></circle></svg>